<svg width="106" height="26" viewBox="0 0 106 26" fill="none" xmlns="http://www.w3.org/2000/svg">
<path d="M55.322 21.0533H52.4754V15.3133C52.3276 15.5933 52.1409 15.8617 51.9154 16.1183C51.6976 16.375 51.437 16.6122 51.1337 16.83C50.8381 17.0478 50.4998 17.2189 50.1187 17.3433C49.7454 17.4678 49.3331 17.53 48.882 17.53C47.9409 17.53 47.0893 17.3122 46.327 16.8767C45.5726 16.4333 44.9698 15.745 44.5187 14.8117C44.0754 13.8706 43.8537 12.6456 43.8537 11.1367C43.8537 9.81444 44.0443 8.69833 44.4254 7.78833C44.8065 6.87056 45.3509 6.17833 46.0587 5.71167C46.7743 5.23722 47.6259 5 48.6137 5C49.0881 5 49.5237 5.06222 49.9204 5.18667C50.3248 5.30333 50.6865 5.46278 51.0054 5.665C51.332 5.86722 51.6159 6.09667 51.857 6.35333C52.0981 6.61 52.3004 6.87055 52.4637 7.135L52.4754 5.23333H55.322V21.0533ZM49.512 15.4067C50.1731 15.4067 50.7254 15.2161 51.1687 14.835C51.612 14.4461 51.9426 13.9328 52.1604 13.295C52.3781 12.6494 52.487 11.9456 52.487 11.1833C52.487 10.0011 52.2381 9.02889 51.7404 8.26667C51.2504 7.49667 50.5076 7.11167 49.512 7.11167C48.6643 7.11167 47.9565 7.45 47.3887 8.12667C46.8287 8.80333 46.5487 9.82222 46.5487 11.1833C46.5487 12.5367 46.8093 13.5789 47.3304 14.31C47.8593 15.0411 48.5865 15.4067 49.512 15.4067Z" fill="#1C3F39"/>
<path d="M62.9551 17.53C62.364 17.53 61.7924 17.4444 61.2401 17.2733C60.6957 17.0944 60.2057 16.8378 59.7701 16.5033C59.3346 16.1611 58.9885 15.7411 58.7318 15.2433C58.4751 14.7456 58.3468 14.1661 58.3468 13.505V5.23333H61.1935V13.1783C61.1935 13.8317 61.3996 14.3683 61.8118 14.7883C62.2318 15.2083 62.8618 15.4183 63.7018 15.4183C64.464 15.4183 65.0746 15.22 65.5335 14.8233C65.9924 14.4189 66.2218 13.8394 66.2218 13.085V5.23333H69.0451V17.2967H66.8635L66.5485 14.94C66.4007 15.6011 66.1401 16.1222 65.7668 16.5033C65.4012 16.8767 64.9696 17.1411 64.4718 17.2967C63.9818 17.4522 63.4762 17.53 62.9551 17.53Z" fill="#1C3F39"/>
<path d="M72.1937 17.2967V5.23333H74.912V7.84667C75.1064 7.24778 75.3826 6.73833 75.7403 6.31833C76.1059 5.89055 76.5337 5.56389 77.0237 5.33833C77.5137 5.11278 78.0464 5 78.622 5C78.762 5 78.8981 5.00778 79.0303 5.02333C79.1626 5.03889 79.2598 5.06611 79.322 5.105V7.82333C79.2365 7.78444 79.1237 7.75722 78.9837 7.74167C78.8514 7.72611 78.7348 7.71833 78.6337 7.71833C78.0503 7.67167 77.5331 7.695 77.082 7.78833C76.6387 7.88167 76.2614 8.04111 75.9503 8.26667C75.647 8.48444 75.4176 8.76444 75.262 9.10667C75.1064 9.44111 75.0287 9.83389 75.0287 10.285V17.2967H72.1937Z" fill="#1C3F39"/>
<path d="M84.681 17.53C83.911 17.53 83.2188 17.39 82.6043 17.11C81.9977 16.8222 81.5193 16.4139 81.1693 15.885C80.8271 15.3483 80.656 14.6989 80.656 13.9367C80.656 12.6067 81.1343 11.6033 82.091 10.9267C83.0555 10.25 84.5916 9.89611 86.6994 9.865L88.496 9.81833V9.00167C88.496 8.36389 88.3055 7.86611 87.9244 7.50833C87.551 7.14278 86.9677 6.96389 86.1744 6.97167C85.591 6.97944 85.0543 7.11944 84.5644 7.39167C84.0821 7.65611 83.7632 8.10333 83.6077 8.73333H81.1927C81.2393 7.90889 81.4766 7.22056 81.9044 6.66833C82.3399 6.10833 82.9349 5.69222 83.6894 5.42C84.4438 5.14 85.3149 5 86.3027 5C87.4538 5 88.391 5.15167 89.1143 5.455C89.8377 5.75833 90.3705 6.19778 90.7127 6.77333C91.0549 7.34111 91.226 8.02944 91.226 8.83833V17.2967H88.8343L88.6127 15.1267C88.1771 16.0367 87.6249 16.6667 86.956 17.0167C86.2949 17.3589 85.5366 17.53 84.681 17.53ZM85.6027 15.605C85.9527 15.605 86.2988 15.5428 86.641 15.4183C86.9832 15.2861 87.2943 15.1111 87.5744 14.8933C87.8544 14.6678 88.076 14.4189 88.2393 14.1467C88.4105 13.8744 88.496 13.5906 88.496 13.295V11.3933L87.0144 11.4167C86.2832 11.4244 85.6455 11.5022 85.101 11.65C84.5566 11.7978 84.1288 12.035 83.8177 12.3617C83.5144 12.6806 83.3627 13.1083 83.3627 13.645C83.3627 14.2594 83.5766 14.7417 84.0043 15.0917C84.4321 15.4339 84.9649 15.605 85.6027 15.605Z" fill="#1C3F39"/>
<path d="M94.5472 17.2967V5.23333H97.3239V6.96C97.5105 6.64889 97.7633 6.34944 98.0822 6.06167C98.4089 5.77389 98.8094 5.54056 99.2839 5.36167C99.7583 5.18278 100.314 5.09333 100.952 5.09333C101.699 5.09333 102.391 5.24111 103.029 5.53667C103.674 5.83222 104.192 6.295 104.581 6.925C104.977 7.555 105.176 8.36778 105.176 9.36333V17.2967H102.329V9.70167C102.329 8.90833 102.111 8.32111 101.676 7.94C101.24 7.55111 100.692 7.35667 100.031 7.35667C99.5794 7.35667 99.1516 7.43444 98.7472 7.59C98.3427 7.73778 98.0122 7.96722 97.7555 8.27833C97.5066 8.58167 97.3822 8.96278 97.3822 9.42167V17.2967H94.5472Z" fill="#1C3F39"/>
<path d="M35.6152 18.9053C30.6338 18.2591 24.0051 18.5316 17.8078 25.5004C11.6106 18.5316 4.98182 18.2591 0.000473022 18.9053L3.45212 15.3782C10.2927 14.4126 15.8859 17.4156 17.8078 19.0377C19.7298 17.4156 25.323 14.4126 32.1635 15.3782L35.6152 18.9053Z" fill="#F2AC0D"/>
<path d="M21.1943 22.3466C20.0596 23.2023 18.9267 24.2421 17.8078 25.5003C16.689 24.2421 15.5561 23.2023 14.4213 22.3466L17.8078 19.0376L21.1943 22.3466Z" fill="#D29303"/>
<path d="M29.367 13.3946C29.341 12.1579 27.8831 9.21609 22.8455 6.24819C21.0558 5.19381 17.8703 2.96789 17.8078 0C17.7454 2.96789 14.5599 5.19381 12.7702 6.24819C7.73264 9.21609 6.27472 12.1579 6.24869 13.3946C8.51366 12.965 13.9418 13.7851 17.8078 17.1044C21.6739 13.7851 27.102 12.965 29.367 13.3946Z" fill="#26534C"/>
</svg>
