<svg width="1439" height="909" viewBox="0 0 1439 909" fill="none" xmlns="http://www.w3.org/2000/svg">
<path d="M78.648 798.382C75.8953 801.952 71.804 804 67.4236 804C64.1506 804 60.8327 802.731 58.3539 800.625C55.3577 798.079 53.4843 794.461 53.0811 790.437C52.6773 786.412 53.7912 782.464 56.2166 779.319C57.1765 778.073 58.3088 777.002 59.5815 776.135L59.7794 776L59.6951 776.231C57.4824 782.307 59.2332 789.14 64.0504 793.236C66.5862 795.389 69.773 796.575 73.0248 796.575C75.7969 796.575 78.4862 795.742 80.8015 794.167L81 794.031L80.9152 794.263C80.3684 795.752 79.6053 797.138 78.648 798.382Z" fill="#E2E0D2"/>
<path d="M1383.65 798.382C1380.9 801.952 1376.8 804 1372.42 804C1369.15 804 1365.83 802.731 1363.35 800.625C1360.36 798.079 1358.48 794.461 1358.08 790.437C1357.68 786.412 1358.79 782.464 1361.22 779.319C1362.18 778.073 1363.31 777.002 1364.58 776.135L1364.78 776L1364.7 776.231C1362.48 782.307 1364.23 789.14 1369.05 793.236C1371.59 795.389 1374.77 796.575 1378.02 796.575C1380.8 796.575 1383.49 795.742 1385.8 794.167L1386 794.031L1385.92 794.263C1385.37 795.752 1384.61 797.138 1383.65 798.382Z" fill="#E2E0D2"/>
<path d="M656.214 312.104C656.214 308.642 654.331 305.646 651.554 304.009C662.935 293.54 670 281.433 670 264.153C670 213.219 607.987 203.187 607.987 179.758C607.987 203.187 545.975 213.219 545.975 264.153C545.975 281.432 553.038 293.539 564.421 304.007C561.644 305.644 559.761 308.638 559.761 312.104C559.761 317.132 563.696 321.2 568.652 321.469V371.795C563.696 372.063 559.761 376.132 559.761 381.16C559.761 386.19 563.696 390.263 568.652 390.53V416.806H452.401V378.481H439.058V352.093H437.953C461.473 329.161 475.881 302.505 475.881 265.293C475.881 160.257 359.819 131.772 338.388 87.6127C342.152 88.5501 346.029 89.0572 349.94 89.0572C364.549 89.0572 378.193 82.5446 387.374 71.1895C390.567 67.2319 393.111 62.8248 394.935 58.0873L395.218 57.351L394.556 57.7812C386.834 62.7916 377.865 65.4411 368.62 65.4411C357.775 65.4411 347.147 61.6689 338.69 54.8205C322.624 41.7934 316.785 20.059 324.165 0.734507L324.446 0L323.786 0.428461C319.541 3.18636 315.765 6.59482 312.564 10.5577C304.475 20.5609 300.76 33.1175 302.107 45.9172C303.451 58.7168 309.699 70.2259 319.692 78.3229C323.557 81.4551 327.889 83.9157 332.474 85.7082C313.524 130.973 194.117 158.755 194.117 265.292C194.117 302.501 208.52 329.159 232.042 352.091H230.936V378.479H217.597V416.805H101.343V390.411C106.304 390.144 110.251 386.073 110.251 381.047C110.251 376.019 106.304 371.947 101.343 371.682V321.352C106.304 321.084 110.251 317.015 110.251 311.987C110.251 308.526 108.361 305.532 105.579 303.897C116.956 293.432 124.025 281.325 124.025 264.045C124.025 213.11 62.0055 203.072 62.0055 179.641C62.0055 203.07 0 213.11 0 264.045C0 281.327 7.06863 293.434 18.4497 303.897C15.6691 305.534 13.7827 308.526 13.7827 311.987C13.7827 317.013 17.7266 321.083 22.68 321.352V371.682C17.7266 371.951 13.7827 376.02 13.7827 381.047C13.7827 386.071 17.7266 390.142 22.68 390.411V416.805H22.6259V909H99.8743V523.842C99.8743 495.964 139.767 477.699 139.767 477.699C139.767 477.699 179.657 495.962 179.657 523.842V909H279.061V495.126C279.061 456.036 335.001 430.428 335.001 430.428C335.001 430.428 390.937 456.038 390.937 495.126V909H490.341V523.842C490.341 495.964 530.231 477.699 530.231 477.699C530.231 477.699 570.124 495.962 570.124 523.842V909H647.372V416.806H647.322V390.53C652.275 390.265 656.216 386.192 656.216 381.16C656.216 376.132 652.275 372.061 647.322 371.795V321.471C652.273 321.203 656.214 317.132 656.214 312.104Z" fill="#E2E0D2"/>
<path d="M1425.21 312.104C1425.21 308.642 1423.33 305.646 1420.55 304.009C1431.93 293.54 1439 281.433 1439 264.153C1439 213.219 1376.99 203.187 1376.99 179.758C1376.99 203.187 1314.98 213.219 1314.98 264.153C1314.98 281.432 1322.04 293.539 1333.42 304.007C1330.64 305.644 1328.76 308.638 1328.76 312.104C1328.76 317.132 1332.7 321.2 1337.65 321.469V371.795C1332.7 372.063 1328.76 376.132 1328.76 381.16C1328.76 386.19 1332.7 390.263 1337.65 390.53V416.806H1221.4V378.481H1208.06V352.093H1206.95C1230.47 329.161 1244.88 302.505 1244.88 265.293C1244.88 160.257 1128.82 131.772 1107.39 87.6127C1111.15 88.5501 1115.03 89.0572 1118.94 89.0572C1133.55 89.0572 1147.19 82.5446 1156.37 71.1895C1159.57 67.2319 1162.11 62.8248 1163.93 58.0873L1164.22 57.351L1163.56 57.7812C1155.83 62.7916 1146.87 65.4411 1137.62 65.4411C1126.78 65.4411 1116.15 61.6689 1107.69 54.8205C1091.62 41.7934 1085.79 20.059 1093.16 0.734507L1093.45 0L1092.79 0.428461C1088.54 3.18636 1084.77 6.59482 1081.56 10.5577C1073.47 20.5609 1069.76 33.1175 1071.11 45.9172C1072.45 58.7168 1078.7 70.2259 1088.69 78.3229C1092.56 81.4551 1096.89 83.9157 1101.47 85.7082C1082.52 130.973 963.117 158.755 963.117 265.292C963.117 302.501 977.52 329.159 1001.04 352.091H999.936V378.479H986.597V416.805H870.343V390.411C875.304 390.144 879.251 386.073 879.251 381.047C879.251 376.019 875.304 371.947 870.343 371.682V321.352C875.304 321.084 879.251 317.015 879.251 311.987C879.251 308.526 877.361 305.532 874.579 303.897C885.956 293.432 893.025 281.325 893.025 264.045C893.025 213.11 831.005 203.072 831.005 179.641C831.005 203.07 769 213.11 769 264.045C769 281.327 776.069 293.434 787.45 303.897C784.669 305.534 782.783 308.526 782.783 311.987C782.783 317.013 786.727 321.083 791.68 321.352V371.682C786.727 371.951 782.783 376.02 782.783 381.047C782.783 386.071 786.727 390.142 791.68 390.411V416.805H791.626V909H868.874V523.842C868.874 495.964 908.767 477.699 908.767 477.699C908.767 477.699 948.657 495.962 948.657 523.842V909H1048.06V495.126C1048.06 456.036 1104 430.428 1104 430.428C1104 430.428 1159.94 456.038 1159.94 495.126V909H1259.34V523.842C1259.34 495.964 1299.23 477.699 1299.23 477.699C1299.23 477.699 1339.12 495.962 1339.12 523.842V909H1416.37V416.806H1416.32V390.53C1421.28 390.265 1425.22 386.192 1425.22 381.16C1425.22 376.132 1421.28 372.061 1416.32 371.795V321.471C1421.27 321.203 1425.21 317.132 1425.21 312.104Z" fill="#E2E0D2"/>
</svg>
