<svg width="36" height="26" viewBox="0 0 36 26" fill="none" xmlns="http://www.w3.org/2000/svg">
<path d="M35.6152 18.9053C30.6338 18.2591 24.0051 18.5316 17.8078 25.5004C11.6106 18.5316 4.98182 18.2591 0.000473022 18.9053L3.45212 15.3782C10.2927 14.4126 15.8859 17.4156 17.8078 19.0377C19.7298 17.4156 25.323 14.4126 32.1635 15.3782L35.6152 18.9053Z" fill="#F2AC0D"/>
<path d="M21.1943 22.3466C20.0596 23.2023 18.9267 24.2421 17.8078 25.5003C16.689 24.2421 15.5561 23.2023 14.4213 22.3466L17.8078 19.0376L21.1943 22.3466Z" fill="#D29303"/>
<path d="M29.367 13.3946C29.341 12.1579 27.8831 9.21609 22.8455 6.24819C21.0558 5.19381 17.8703 2.96789 17.8078 0C17.7454 2.96789 14.5599 5.19381 12.7702 6.24819C7.73264 9.21609 6.27472 12.1579 6.24869 13.3946C8.51366 12.965 13.9418 13.7851 17.8078 17.1044C21.6739 13.7851 27.102 12.965 29.367 13.3946Z" fill="#26534C"/>
</svg>
